#!OML:ASF H:\Martial Arts Walks\Project 1\Capture day 1\Session 1\male.ASF
:FULLY-SPECIFIED
:DEGREES
988
root -2.59198 13.8987 25.0821 5.64789 13.8507 1.2884
lowerback 10.5738 -4.3986 -11.0572
upperback -1.81674 -7.17334 2.51565
thorax -6.20841 -3.07115 9.98012
lowerneck 9.40929 -18.1124 -18.7876
upperneck 7.47543 -27.0967 16.8397
head 5.62858 -13.8327 6.3997
rclavicle 3.38928e-014 1.20762e-014
rhumerus -38.8354 13.1306 -78.717
rradius 36.9293
rwrist 0.950843
rhand -11.7791 -37.9827
rfingers 7.12502
rthumb 14.2699 -67.4724
lclavicle 3.38928e-014 1.20762e-014
lhumerus -34.0632 -0.00967838 82.2272
lradius 30.4263
lwrist -16.4378
lhand -23.1024 19.2055
lfingers 7.12502
lthumb 3.34422 49.159
rfemur -61.7875 -12.4388 14.7606
rtibia 72.2404
rfoot -13.4118 14.586
rtoes 4.23267
lfemur 14.9908 0.896362 -13.259
ltibia 32.6323
lfoot -31.5668 37.8043
ltoes -20.1679
989
root -2.5882 13.9004 25.0823 5.66264 13.8431 1.20797
lowerback 10.587 -4.43734 -11.0322
upperback -1.85275 -7.22213 2.56796
thorax -6.23917 -3.09148 10.0327
lowerneck 9.47114 -18.1023 -18.7645
upperneck 7.35136 -27.0792 16.8802
head 5.57979 -13.8281 6.42297
rclavicle 7.78304e-014 -2.08724e-015
rhumerus -38.862 13.1882 -78.7055
rradius 36.9206
rwrist 1.03496
rhand -11.7804 -37.9922
rfingers 7.12502
rthumb 14.2686 -67.482
lclavicle 7.78304e-014 -2.08724e-015
lhumerus -33.875 0.0839271 82.1917
lradius 30.2987
lwrist -16.37
lhand -23.2804 19.2592
lfingers 7.12502
lthumb 3.17232 49.2153
rfemur -61.791 -12.403 14.8298
rtibia 72.2033
rfoot -13.4136 14.5561
rtoes 4.10301
lfemur 14.9557 0.919459 -13.1831
ltibia 32.6519
lfoot -31.592 37.7873
ltoes -20.3246
990
root -2.58432 13.9012 25.0791 5.68773 13.8557 1.20689
lowerback 10.5662 -4.46951 -11.0544
upperback -1.84625 -7.26469 2.57811
thorax -6.20588 -3.11459 10.0571
lowerneck 9.09562 -18.2273 -18.6879
upperneck 7.63116 -27.2042 16.6844
head 5.70922 -13.8653 6.28706
rclavicle 9.0006e-014 1.32192e-014
rhumerus -38.7741 13.2566 -78.6958
rradius 36.8808
rwrist 1.03431
rhand -11.7676 -37.9997
rfingers 7.12502
rthumb 14.281 -67.4887
lclavicle 9.0006e-014 1.32192e-014
lhumerus -33.6205 0.0317712 82.185
lradius 30.2317
lwrist -16.0443
lhand -23.1189 19.5418
lfingers 7.12502
lthumb 3.3283 49.4955
rfemur -61.8119 -12.4339 14.8322
rtibia 72.1727
rfoot -13.3749 14.5671
rtoes 4.05022
lfemur 14.9075 0.923041 -13.1904
ltibia 32.6831
lfoot -31.6417 37.7579
ltoes -20.4797
991
root -2.58059 13.9025 25.0756 5.74905 13.8202 1.15012
lowerback 10.5758 -4.47643 -11.0147
upperback -1.90083 -7.27128 2.60435
thorax -6.27039 -3.11138 10.0699
lowerneck 9.11661 -18.234 -18.7148
upperneck 7.58215 -27.2192 16.731
head 5.70386 -13.8744 6.30437
rclavicle 6.40087e-014 6.01324e-015
rhumerus -38.7814 13.2613 -78.6645
rradius 36.904
rwrist 1.09051
rhand -11.6948 -38.0342
rfingers 7.12502
rthumb 14.3511 -67.5182
lclavicle 6.40087e-014 6.01324e-015
lhumerus -33.4428 0.0409831 82.1457
lradius 30.2468
lwrist -16.0741
lhand -23.837 19.3971
lfingers 7.12502
lthumb 2.63479 49.3605
rfemur -61.8927 -12.386 14.8982
rtibia 72.1364
rfoot -13.3385 14.5315
rtoes 3.82261
lfemur 14.8112 0.996449 -13.1288
ltibia 32.7267
lfoot -31.754 37.6629
ltoes -20.563
992
root -2.57672 13.9037 25.0737 5.79051 13.806 1.18424
lowerback 10.5682 -4.49104 -11.0766
upperback -1.9089 -7.29826 2.61203
thorax -6.2602 -3.12273 10.1156
lowerneck 9.09327 -18.2473 -18.722
upperneck 7.52642 -27.2345 16.7829
head 5.70154 -13.8808 6.31644
rclavicle 6.49094e-014 1.05853e-014
rhumerus -38.7373 13.2942 -78.6332
rradius 36.9272
rwrist 1.10831
rhand -11.7054 -38.0702
rfingers 7.12502
rthumb 14.3409 -67.5549
lclavicle 6.49094e-014 1.05853e-014
lhumerus -33.2223 0.0743094 82.1135
lradius 30.3168
lwrist -16.0518
lhand -23.8795 19.5587
lfingers 7.12502
lthumb 2.59372 49.5227
rfemur -61.9367 -12.3931 14.865
rtibia 72.1157
rfoot -13.3089 14.556
rtoes 3.81919
lfemur 14.7566 1.0523 -13.1579
ltibia 32.7598
lfoot -31.7938 37.6197
ltoes -20.7603
993
root -2.57326 13.9042 25.071 5.81073 13.7834 1.12429
lowerback 10.5904 -4.49631 -11.0341
upperback -1.93454 -7.30223 2.63403
thorax -6.30175 -3.12148 10.1211
lowerneck 9.09857 -18.2753 -18.6946
upperneck 7.44676 -27.2648 16.8085
head 5.68129 -13.8957 6.31908
rclavicle 4.20181e-014 3.82164e-014
rhumerus -38.7137 13.3216 -78.6091
rradius 36.9556
rwrist 1.11155
rhand -11.6839 -38.1085
rfingers 7.12502
rthumb 14.3616 -67.5917
lclavicle 4.20181e-014 3.82164e-014
lhumerus -33.0173 -0.0184768 82.1275
lradius 30.3638
lwrist -15.7522
lhand -24.1864 19.4561
lfingers 7.12502
lthumb 2.29735 49.4235
rfemur -61.9708 -12.3663 14.9318
rtibia 72.0957
rfoot -13.292 14.5598
rtoes 4.15713
lfemur 14.7278 1.11247 -13.0834
ltibia 32.755
lfoot -31.8348 37.5279
ltoes -20.8202
994
root -2.56635 13.903 25.0679 5.87695 13.7248 1.18562
lowerback 10.507 -4.49654 -11.11
upperback -1.92967 -7.30339 2.62694
thorax -6.241 -3.12461 10.1452
lowerneck 8.96548 -18.2693 -18.6062
upperneck 7.45142 -27.2211 16.7347
head 5.67267 -13.8661 6.28189
rclavicle -5.01931e-015 9.74045e-015
rhumerus -38.5985 13.4636 -78.6225
rradius 36.8759
rwrist 1.03387
rhand -11.7341 -38.1186
rfingers 7.12502
rthumb 14.3132 -67.6053
lclavicle -5.01931e-015 9.74045e-015
lhumerus -32.7767 -0.141264 82.1525
lradius 30.463
lwrist -15.4687
lhand -24.5422 19.4167
lfingers 7.12502
lthumb 1.95373 49.3875
rfemur -62.0714 -12.3873 14.873
rtibia 72.0952
rfoot -13.2754 14.5912
rtoes 3.4786
lfemur 14.6974 1.17937 -13.181
ltibia 32.7347
lfoot -31.8399 37.5195
ltoes -20.9024
995
root -2.5614 13.9023 25.073 5.8021 13.763 1.30777
lowerback 10.5627 -4.51033 -11.1861
upperback -1.90508 -7.34047 2.56961
thorax -6.23565 -3.1421 10.1335
lowerneck 9.10711 -18.2924 -18.6677
upperneck 7.31635 -27.2769 16.859
head 5.64519 -13.9025 6.33399
rclavicle -6.19835e-014 3.28989e-014
rhumerus -38.5926 13.3525 -78.559
rradius 36.9928
rwrist 1.10737
rhand -11.8174 -38.1131
rfingers 7.12502
rthumb 14.233 -67.6054
lclavicle -6.19835e-014 3.28989e-014
lhumerus -32.6041 -0.155589 82.1127
lradius 30.6547
lwrist -15.4321
lhand -24.5239 19.6573
lfingers 7.12502
lthumb 1.97138 49.6279
rfemur -61.9378 -12.4876 14.7089
rtibia 72.1201
rfoot -13.2949 14.6624
rtoes 3.66454
lfemur 14.8453 1.18455 -13.28
ltibia 32.6971
lfoot -31.8943 37.4403
ltoes -20.9697
996
root -2.5583 13.9015 25.0708 5.82046 13.7013 1.29892
lowerback 10.5687 -4.5067 -11.2208
upperback -1.92307 -7.34127 2.58253
thorax -6.25287 -3.13877 10.1697
lowerneck 9.02735 -18.2912 -18.6389
upperneck 7.31055 -27.2592 16.8409
head 5.64603 -13.8893 6.32034
rclavicle 1.2629e-014 -4.52235e-015
rhumerus -38.5104 13.4319 -78.5379
rradius 36.9908
rwrist 1.10115
rhand -11.8506 -38.0873
rfingers 7.12502
rthumb 14.2009 -67.5819
lclavicle 1.2629e-014 -4.52235e-015
lhumerus -32.4554 -0.242741 82.131
lradius 30.8659
lwrist -15.0712
lhand -24.9124 19.4965
lfingers 7.12502
lthumb 1.59615 49.4703
rfemur -61.9856 -12.4218 14.7112
rtibia 72.12
rfoot -13.2483 14.6729
rtoes 3.71323
lfemur 14.8468 1.25675 -13.2735
ltibia 32.6708
lfoot -31.9399 37.3752
ltoes -20.9901
997
root -2.5535 13.9013 25.069 5.81148 13.6776 1.25525
lowerback 10.5856 -4.49676 -11.1617
upperback -1.94746 -7.32347 2.58241
thorax -6.30031 -3.12723 10.1388
lowerneck 9.09744 -18.308 -18.6416
upperneck 7.23223 -27.2848 16.8596
head 5.61834 -13.9063 6.33193
rclavicle 1.06474e-014 -9.0944e-015
rhumerus -38.4904 13.3802 -78.4884
rradius 37.0279
rwrist 1.08787
rhand -11.9308 -38.0067
rfingers 7.12502
rthumb 14.1237 -67.5067
lclavicle 1.06474e-014 -9.0944e-015
lhumerus -32.2421 -0.455294 82.1679
lradius 30.9869
lwrist -14.772
lhand -25.1262 19.5893
lfingers 7.12502
lthumb 1.38971 49.5645
rfemur -61.9949 -12.3996 14.7429
rtibia 72.116
rfoot -13.2312 14.6768
rtoes 3.69155
lfemur 14.8726 1.30311 -13.2332
ltibia 32.6354
lfoot -31.8925 37.3868
ltoes -21.0522
998
root -2.54876 13.8996 25.0679 5.82669 13.6242 1.2726
lowerback 10.5764 -4.50004 -11.2033
upperback -1.94889 -7.33241 2.58332
thorax -6.28958 -3.13087 10.163
lowerneck 9.07614 -18.3112 -18.6371
upperneck 7.1677 -27.2795 16.8751
head 5.60225 -13.903 6.33652
rclavicle -7.81534e-014 1.37161e-014
rhumerus -38.3774 13.4104 -78.4541
rradius 37.0403
rwrist 1.07771
rhand -11.873 -38.1111
rfingers 7.12502
rthumb 14.1794 -67.6072
lclavicle -7.81534e-014 1.37161e-014
lhumerus -32.0421 -0.553971 82.1722
lradius 31.2027
lwrist -14.5041
lhand -25.2412 19.6927
lfingers 7.12502
lthumb 1.27864 49.6686
rfemur -62.0245 -12.3677 14.7138
rtibia 72.117
rfoot -13.2645 14.6587
rtoes 3.41005
lfemur 14.8722 1.36592 -13.2663
ltibia 32.6382
lfoot -31.9456 37.363
ltoes -21.0615
